<svg xmlns="http://www.w3.org/2000/svg" width="58.137" height="66.113" viewBox="0 0 58.137 66.113">
  <g id="Group_74" data-name="Group 74" transform="translate(-532.582 -480.229)">
    <g id="appeal" transform="translate(534.583 491.441)">
      <path id="Path_57" data-name="Path 57" stroke="#4aaacd" d="M808.206,767.953V731h37.3l.114,45.063s-.743,7.54-10.338,7.768c-9.652.228-29.641-.286-29.641-.286s-4.455-2.342-4.055-7.025c.342-4.627,3.712-5.94,3.712-5.94h30.842s-4.284,2-4.226,6.453a8.952,8.952,0,0,0,3.255,6.8" fill="none" transform="translate(-801.555 -731)" stroke-linecap="round" stroke-linejoin="round" stroke-width="4" fill-rule="evenodd"/>
    </g>
    <g id="edit" transform="translate(559.263 480.229)">
      <g id="Group_51" data-name="Group 51" transform="translate(0 0)">
        <path id="Path_56" data-name="Path 56" d="M5.633,30.541,5.6,37.025a1.408,1.408,0,0,0,.4,1,1.332,1.332,0,0,0,.964.4l6.451-.033a1.332,1.332,0,0,0,.964-.4L36.656,15.711a1.405,1.405,0,0,0,0-1.962L30.272,7.3a1.405,1.405,0,0,0-1.962,0l-4.456,4.489L6.032,29.577A1.481,1.481,0,0,0,5.633,30.541ZM29.308,10.225,33.8,14.714,31.27,17.241l-4.489-4.489ZM8.393,31.14,24.819,14.714,29.308,19.2,12.882,35.6l-4.522.033Z" transform="translate(-5.6 -6.9)" fill="#ffc50c"/>
      </g>
    </g>
  </g>
</svg>
