<svg xmlns="http://www.w3.org/2000/svg" width="78.094" height="78.091" viewBox="0 0 78.094 78.091">
  <g id="Group_54" data-name="Group 54" transform="translate(-444.463 -674.627)">
    <path id="message-circle" d="M64,30.261a27.2,27.2,0,0,1-2.759,12.02h0c-4.03,8.356-19.246,17.7-29.115,17.7a25.049,25.049,0,0,1-11.65-2.847L3,63.144l5.825-18.03a27.2,27.2,0,0,1-2.759-12.02c0-10.182,8.911-23.55,17.738-28.1a25.049,25.049,0,0,1,11.65-2.847h1.533C50.219,2.9,63.27,15.027,64,28.679Z" transform="matrix(0.951, 0.309, -0.309, 0.951, 461.721, 672.283)" fill="#4aaacd" stroke="#4aaacd" stroke-linejoin="bevel" stroke-width="1"/>
    <g id="x" transform="translate(458 689)">
      <line id="Line_14" data-name="Line 14" x1="50.299" y2="50.299" transform="translate(0)" fill="none" stroke="#f21818" stroke-linecap="round" stroke-linejoin="bevel" stroke-width="5"/>
      <line id="Line_15" data-name="Line 15" x2="50.299" y2="50.299" transform="translate(0)" fill="none" stroke="#f21818" stroke-linecap="round" stroke-linejoin="bevel" stroke-width="5"/>
    </g>
  </g>
</svg>
