<svg xmlns="http://www.w3.org/2000/svg" width="70.303" height="49.688" viewBox="0 0 70.303 49.688">
  <g id="Group_56" data-name="Group 56" transform="translate(2.001 0)">
    <g id="sud" transform="translate(18.503)">
      <path id="Path_38" data-name="Path 38" d="M1651.051,365.948l1.374-1.647c.933.439,7.471,7.192,9.12,8.839.6.659,2.966,2.361,2.2,3.568-1.1,1.647-3.186-1.043-3.57-1.482-1.1-1.1-2.032-2.031-3.131-3.074C1655.775,370.833,1651.764,367.155,1651.051,365.948Zm-1.758-1.482-.934-.988a4.659,4.659,0,0,1,1.593-1.812l1.1,1.043Zm-7.361-7.686,1.593-1.592,4.834,4.831a4.578,4.578,0,0,1-1.592,1.647,12.749,12.749,0,0,1-2.528-2.36A11.032,11.032,0,0,1,1641.932,356.78Zm-4.285-17.128,2.692-2.745c.6.439,9.669,9.278,10.163,10.266l-2.527,2.745c-.77-.439-4.779-4.611-5.933-5.764-.77-.768-1.044-1.318-2.417-1.1-.77,1.592.11,1.812,2.143,3.9a39.385,39.385,0,0,1,3.35,3.459c-1.208,1.482-8.514,8.4-8.845,8.948-.494.878.055,1.318.275,2.086l-2.582,2.415-10.328-10.211,2.691-2.745c1.428,1.427,2.747,2.69,4.121,4.117.714.714,3.571,4.557,4.449,1.757.055-.933-4.889-4.557-5.877-6.368.548-1.043,5.987-6.2,7.526-7.74C1637.536,341.738,1638.635,341.244,1637.646,339.652ZM1635.5,340.8l-8.021,7.906c-.165.164-.77-1.043-2.032.055-.549.439-4.4,4.227-4.45,4.831,0,.823,5.329,5.819,6.264,6.7,1.1,1.1,2.032,2.086,3.186,3.184,3.351,3.349,2.856,4.721,8.24-1.263a1.334,1.334,0,0,0,.219-1.921l1.374-1.922,17.471,17.458c1.264,1.263,4.285,5.435,7.306,2.47,2.967-2.8-1.319-5.984-2.473-7.136-2.142-2.086-16.865-16.579-17.47-17.567l1.484-1.537c1.923.6,1.153,1.043,3.736-1.537,3.791-3.733,3.735-3.019,0-6.7-1.1-1.153-2.033-2.086-3.186-3.184-.879-.878-5.714-6.039-6.427-6.2-1.1-.329-2.8,1.922-3.462,2.525C1636.218,338,1634.405,338.938,1635.5,340.8Z" transform="translate(-1616.287 -334.404)" fill="#4aaacd" fill-rule="evenodd"/>
      <path id="Path_39" data-name="Path 39" d="M1567.4,1027.4h-23.255V1023.9c2.736,0,10.884.475,12.609-.417.3-2.5-1.547-1.843-3.688-1.843h-5.353c-.357-2.14.178-2.377,2.082-2.377,2.914,0,12.192-.179,13.8.178.536,1.307,0,3.15.655,3.923.773.951.893.416,3.153.594Zm-25.337-5.528a23.314,23.314,0,0,0,0,7.607c1.6.476,25.813.476,27.359-.059.475-1.308.417-6.182.059-7.548a10.954,10.954,0,0,0-3.212-.3c-.416-2.615-.357-4.22-3.093-4.577l-15.047.06c-2.854.475-2.676,3.209-2.913,4.517A10.746,10.746,0,0,0,1542.063,1021.874Z" transform="translate(-1541.75 -980.144)" fill="#4aaacd" fill-rule="evenodd"/>
    </g>
    <path id="Path_20" data-name="Path 20" d="M142.113,51.992a.726.726,0,0,0-.726.726V74.352a.726.726,0,0,0,1.452,0V52.718A.726.726,0,0,0,142.113,51.992Z" transform="translate(-141.387 -47.961)" fill="#4aaacd" stroke="#ffc50c" stroke-width="4"/>
    <path id="Path_35" data-name="Path 35" d="M142.113,51.992a.726.726,0,0,0-.726.726V74.352a.726.726,0,0,0,1.452,0V52.718A.726.726,0,0,0,142.113,51.992Z" transform="translate(-128.508 -47.962)" fill="#4aaacd" stroke="#ffc50c" stroke-width="4"/>
  </g>
</svg>
