<svg xmlns="http://www.w3.org/2000/svg" width="53.376" height="53.376" viewBox="0 0 53.376 53.376">
  <g id="Group_39" data-name="Group 39" transform="translate(1 1)">
    <path id="Path_20" data-name="Path 20" d="M143,51.992a1.615,1.615,0,0,0-1.615,1.615v48.146a1.615,1.615,0,0,0,3.23,0V53.607A1.615,1.615,0,0,0,143,51.992Z" transform="translate(-117.314 -51.992)" fill="#00e582" stroke="#00e582" stroke-width="2"/>
    <path id="Path_21" data-name="Path 21" d="M167,144.651h17.613a1.615,1.615,0,1,0,0-3.23H167a1.615,1.615,0,1,0,0,3.23Z" transform="translate(-134.853 -117.348)" fill="#00e582" stroke="#00e582" stroke-width="2"/>
    <path id="Path_22" data-name="Path 22" d="M53.572,141.421a1.615,1.615,0,1,0,0,3.23H70.646a1.615,1.615,0,1,0,0-3.23Z" transform="translate(-51.957 -117.348)" fill="#00e582" stroke="#00e582" stroke-width="2"/>
  </g>
</svg>
