<svg xmlns="http://www.w3.org/2000/svg" xmlns:xlink="http://www.w3.org/1999/xlink" width="83.979" height="68.748" viewBox="0 0 83.979 68.748">
  <defs>
    <filter id="Path_31" x="0" y="6.711" width="83.979" height="57.329" filterUnits="userSpaceOnUse">
      <feOffset dy="3" input="SourceAlpha"/>
      <feGaussianBlur stdDeviation="3" result="blur"/>
      <feFlood flood-opacity="0.161"/>
      <feComposite operator="in" in2="blur"/>
      <feComposite in="SourceGraphic"/>
    </filter>
  </defs>
  <g id="Group_53" data-name="Group 53" transform="translate(-16.576 -24.063)">
    <g id="eye" transform="translate(25.577 36.774)">
      <g transform="matrix(1, 0, 0, 1, -9, -12.71)" filter="url(#Path_31)">
        <path id="Path_31-2" data-name="Path 31" d="M32.989,98.725c-12.606,0-24.038,6.9-32.473,18.1a2.612,2.612,0,0,0,0,3.118c8.435,11.216,19.867,18.113,32.473,18.113s24.038-6.9,32.473-18.1a2.612,2.612,0,0,0,0-3.118C57.027,105.622,45.6,98.725,32.989,98.725Zm.9,33.512a13.877,13.877,0,1,1,12.943-12.943A13.885,13.885,0,0,1,33.893,132.237Zm-.418-6.4a7.472,7.472,0,1,1,6.978-6.978A7.46,7.46,0,0,1,33.475,125.84Z" transform="translate(9 -86.01)" fill="#707070"/>
      </g>
    </g>
    <path id="Path_34" data-name="Path 34" d="M33.109-52.766-9.536,10.981" transform="translate(45.313 79.329)" fill="none" stroke="#707070" stroke-linecap="round" stroke-width="5"/>
  </g>
</svg>
