<svg xmlns="http://www.w3.org/2000/svg" width="55.824" height="33.276" viewBox="0 0 55.824 33.276">
  <g id="eye" transform="translate(0 -98.725)">
    <path id="Path_32" data-name="Path 32" d="M27.912,98.725c-10.666,0-20.338,5.835-27.475,15.313a2.21,2.21,0,0,0,0,2.638C7.574,126.166,17.246,132,27.912,132s20.338-5.835,27.475-15.313a2.21,2.21,0,0,0,0-2.638C48.25,104.56,38.578,98.725,27.912,98.725Zm.765,28.354a11.741,11.741,0,1,1,10.951-10.951A11.748,11.748,0,0,1,28.677,127.079Zm-.354-5.413a6.322,6.322,0,1,1,5.9-5.9A6.312,6.312,0,0,1,28.323,121.667Z" transform="translate(0 0)" fill="#4aaacd"/>
  </g>
</svg>
