<svg xmlns="http://www.w3.org/2000/svg" xmlns:xlink="http://www.w3.org/1999/xlink" width="84.418" height="71.118" viewBox="0 0 84.418 71.118">
  <defs>
    <filter id="Path_31" x="0" y="0" width="84.418" height="57.591" filterUnits="userSpaceOnUse">
      <feOffset dy="3" input="SourceAlpha"/>
      <feGaussianBlur stdDeviation="3" result="blur"/>
      <feFlood flood-opacity="0.161"/>
      <feComposite operator="in" in2="blur"/>
      <feComposite in="SourceGraphic"/>
    </filter>
  </defs>
  <g id="Group_55" data-name="Group 55" transform="translate(9 6)">
    <g id="eye">
      <g transform="matrix(1, 0, 0, 1, -9, -6)" filter="url(#Path_31)">
        <path id="Path_31-2" data-name="Path 31" d="M33.209,98.725c-12.69,0-24.2,6.943-32.689,18.219a2.629,2.629,0,0,0,0,3.139c8.492,11.29,20,18.233,32.689,18.233s24.2-6.943,32.689-18.22a2.629,2.629,0,0,0,0-3.139C57.406,105.668,45.9,98.725,33.209,98.725Zm.91,33.735a13.969,13.969,0,1,1,13.029-13.029A13.978,13.978,0,0,1,34.119,132.46Zm-.421-6.44A7.522,7.522,0,1,1,40.722,119,7.51,7.51,0,0,1,33.7,126.02Z" transform="translate(9 -92.72)" fill="#00e380"/>
      </g>
    </g>
    <text id="_277" data-name="277" transform="translate(16.447 60.118)" fill="#00e581" font-size="20" font-family="SegoeUI, Segoe UI"><tspan x="0" y="0">277</tspan></text>
  </g>
</svg>
