<svg xmlns="http://www.w3.org/2000/svg" width="63.293" height="57.609" viewBox="0 0 63.293 57.609">
  <g id="Group_72" data-name="Group 72" transform="translate(-152.455 -487.048)">
    <path id="defenition" d="M157.13,231.2a4.558,4.558,0,0,1,4.543,4.543v27.284a4.557,4.557,0,0,1-4.543,4.543h-42.2a4.557,4.557,0,0,1-4.543-4.543V235.747a4.557,4.557,0,0,1,4.543-4.543h42.2V231.2Zm0-4.543h-42.2a9.108,9.108,0,0,0-9.095,9.095v27.284a9.108,9.108,0,0,0,9.095,9.095h42.2a9.108,9.108,0,0,0,9.095-9.095V235.747a9.108,9.108,0,0,0-9.094-9.095m-21.46,18.2h-17a2.308,2.308,0,0,1,0-4.615h17a2.308,2.308,0,0,1,0,4.615Zm17.792,13.607H118.674a2.268,2.268,0,1,1,0-4.536h34.78a2.268,2.268,0,0,1,.02,4.536Zm-7.416-18.2h9.095v9.095h-9.095Z" transform="translate(46.625 272.532)" fill="#4aaacd"/>
    <path id="rotate-left" d="M2.5,2V8.758H9.257M2.68,17.283a11.262,11.262,0,1,0,.642-9.438" transform="translate(189.286 487.074)" fill="none" stroke="#00e581" stroke-linecap="round" stroke-linejoin="round" stroke-width="4"/>
  </g>
</svg>
