<svg xmlns="http://www.w3.org/2000/svg" width="67.426" height="53.665" viewBox="0 0 67.426 53.665">
  <g id="Group_70" data-name="Group 70" transform="translate(-26.725 -24.85)">
    <path id="defenition" d="M155.634,231.063a4.425,4.425,0,0,1,4.411,4.411v26.489a4.424,4.424,0,0,1-4.411,4.411H114.661a4.424,4.424,0,0,1-4.411-4.411V235.481a4.425,4.425,0,0,1,4.411-4.411h40.973v-.008Zm0-4.411H114.661a8.842,8.842,0,0,0-8.83,8.83v26.489a8.842,8.842,0,0,0,8.83,8.83h40.973a8.842,8.842,0,0,0,8.83-8.83V235.481a8.842,8.842,0,0,0-8.829-8.83M134.8,244.319H118.3a2.24,2.24,0,0,1,0-4.48h16.5a2.24,2.24,0,0,1,0,4.48Zm17.273,13.21H118.3a2.2,2.2,0,1,1,0-4.4h33.766a2.2,2.2,0,0,1,.02,4.4Zm-7.2-17.667h8.83v8.83h-8.83Z" transform="translate(-79.106 -192.286)" fill="#4aaacd"/>
    <g id="edit" transform="translate(63.412 24.85)">
      <g id="Group_51" data-name="Group 51" transform="translate(0 0)">
        <path id="Path_56" data-name="Path 56" d="M5.632,30,5.6,36.338a1.376,1.376,0,0,0,.39.975,1.3,1.3,0,0,0,.942.39l6.3-.032a1.3,1.3,0,0,0,.942-.39l21.77-21.77a1.373,1.373,0,0,0,0-1.917L29.71,7.29a1.373,1.373,0,0,0-1.917,0l-4.354,4.387L6.022,29.06A1.447,1.447,0,0,0,5.632,30ZM28.767,10.149l4.387,4.387-2.469,2.469L26.3,12.619ZM8.329,30.587,24.381,14.536l4.387,4.387L12.716,34.941,8.3,34.974l.032-4.387Z" transform="translate(-5.6 -6.9)" fill="#ffc50c"/>
      </g>
    </g>
  </g>
</svg>
