<svg xmlns="http://www.w3.org/2000/svg" width="59.982" height="45.164" viewBox="0 0 59.982 45.164">
  <path id="defenition" d="M156.78,231.164a4.527,4.527,0,0,1,4.512,4.512v27.1a4.526,4.526,0,0,1-4.512,4.512H114.864a4.526,4.526,0,0,1-4.512-4.512v-27.09a4.526,4.526,0,0,1,4.512-4.512h41.915v-.008Zm0-4.512H114.864a9.045,9.045,0,0,0-9.033,9.033v27.1a9.046,9.046,0,0,0,9.033,9.033h41.915a9.046,9.046,0,0,0,9.033-9.033v-27.1a9.045,9.045,0,0,0-9.032-9.033m-21.313,18.073h-16.88a2.292,2.292,0,0,1,0-4.583h16.88a2.292,2.292,0,0,1,0,4.583Zm17.67,13.514h-34.55a2.252,2.252,0,1,1,0-4.5h34.542a2.252,2.252,0,0,1,.02,4.5Zm-7.365-18.073H154.8V249.2h-9.033Z" transform="translate(-105.83 -226.652)" fill="#e5191b"/>
</svg>
