<svg xmlns="http://www.w3.org/2000/svg" width="59.418" height="44.739" viewBox="0 0 59.418 44.739">
  <path id="defenition" d="M156.3,231.122a4.484,4.484,0,0,1,4.47,4.47v26.844a4.483,4.483,0,0,1-4.47,4.47H114.779a4.483,4.483,0,0,1-4.47-4.47V235.6a4.484,4.484,0,0,1,4.47-4.47H156.3v-.008Zm0-4.47H114.779a8.96,8.96,0,0,0-8.948,8.948v26.843a8.961,8.961,0,0,0,8.948,8.948H156.3a8.961,8.961,0,0,0,8.948-8.948V235.6a8.96,8.96,0,0,0-8.947-8.948m-21.113,17.9H118.466a2.27,2.27,0,0,1,0-4.54h16.721a2.27,2.27,0,0,1,0,4.54Zm17.5,13.387H118.466a2.231,2.231,0,1,1,0-4.462h34.218a2.231,2.231,0,0,1,.02,4.462Zm-7.3-17.9h8.948v8.948H145.4Z" transform="translate(-105.83 -226.652)" fill="#4aaacd"/>
</svg>
