<svg xmlns="http://www.w3.org/2000/svg" width="61.836" height="54.196" viewBox="0 0 61.836 54.196">
  <g id="peace" transform="translate(0.001 0)">
    <path id="Path_41" data-name="Path 41" d="M834.587,669.242l-4.075-2.007c-5.3-3.21-6.926-5.217-11.816-4.013-2.037.4-5.3,2.809-6.927,4.013-4.889,3.21,3.26.4,5.7,8.427,2.445,6.822,1.63,15.249,9.779,20.465,13.039,8.828,11.816-4.414,39.115,8.427l5.7-7.223L852.514,688.9c.408,0,1.223-1.2,1.63-.8l6.519-4.815c9.779-7.624,11-14.446,11-27.287Z" transform="translate(-810.236 -650.358)" fill="#00e581" fill-rule="evenodd"/>
    <path id="Path_42" data-name="Path 42" d="M861,662.806c16.924-4.7,11.753-2.351,15.513-18.806C865.7,645.881,864.761,650.582,861,662.806Z" transform="translate(-841.2 -644)" fill="#00e581" fill-rule="evenodd"/>
  </g>
</svg>
