<svg xmlns="http://www.w3.org/2000/svg" xmlns:xlink="http://www.w3.org/1999/xlink" width="84.422" height="94.713" viewBox="0 0 84.422 94.713">
  <defs>
    <filter id="Path_31" x="0" y="37.12" width="84.422" height="57.593" filterUnits="userSpaceOnUse">
      <feOffset dy="3" input="SourceAlpha"/>
      <feGaussianBlur stdDeviation="3" result="blur"/>
      <feFlood flood-opacity="0.161"/>
      <feComposite operator="in" in2="blur"/>
      <feComposite in="SourceGraphic"/>
    </filter>
  </defs>
  <g id="Group_58" data-name="Group 58" transform="translate(9.003 2)">
    <g id="eye" transform="translate(-0.004 41.12)">
      <g transform="matrix(1, 0, 0, 1, -9, -43.12)" filter="url(#Path_31)">
        <path id="Path_31-2" data-name="Path 31" d="M33.211,98.725c-12.69,0-24.2,6.943-32.691,18.22a2.629,2.629,0,0,0,0,3.139c8.492,11.291,20,18.234,32.691,18.234s24.2-6.943,32.691-18.221a2.629,2.629,0,0,0,0-3.139C57.409,105.668,45.9,98.725,33.211,98.725Zm.91,33.737a13.97,13.97,0,1,1,13.03-13.03A13.979,13.979,0,0,1,34.121,132.462Zm-.421-6.44A7.522,7.522,0,1,1,40.724,119,7.51,7.51,0,0,1,33.7,126.022Z" transform="translate(9 -55.6)" fill="#ffc50c"/>
      </g>
    </g>
    <g id="arrow-right-circle" transform="translate(10.995)">
      <path id="Path_40" data-name="Path 40" d="M32.757,8,49.2,24.448,32.757,40.9M5.33,24.448H45.093" transform="translate(-5.33 -8)" fill="none" stroke="#ffc50c" stroke-linecap="round" stroke-linejoin="round" stroke-width="4"/>
    </g>
  </g>
</svg>
